<svg xmlns="http://www.w3.org/2000/svg" viewBox="0 0 1600 1000" width="1600" height="1000">
<defs>
 <filter id="grain" x="0" y="0" width="100%" height="100%">
  <feTurbulence type="fractalNoise" baseFrequency=".9" numOctaves="2" seed="7"/>
  <feColorMatrix values="0 0 0 0 0  0 0 0 0 0  0 0 0 0 0  0 0 0 .10 0"/>
  <feComposite in2="SourceGraphic" operator="in"/>
 </filter>
 <radialGradient id="vig" cx="50%" cy="42%" r="75%">
  <stop offset="60%" stop-color="#000" stop-opacity="0"/>
  <stop offset="100%" stop-color="#000" stop-opacity=".45"/>
 </radialGradient>
</defs>
<rect width="1600" height="1000" fill="#2B4630"/>
<g opacity=".5"><rect x="0" y="0" width="1600" height="40" fill="#33533A"/><rect x="0" y="80" width="1600" height="40" fill="#33533A"/><rect x="0" y="160" width="1600" height="40" fill="#33533A"/><rect x="0" y="240" width="1600" height="40" fill="#33533A"/><rect x="0" y="320" width="1600" height="40" fill="#33533A"/><rect x="0" y="400" width="1600" height="40" fill="#33533A"/><rect x="0" y="480" width="1600" height="40" fill="#33533A"/><rect x="0" y="560" width="1600" height="40" fill="#33533A"/><rect x="0" y="640" width="1600" height="40" fill="#33533A"/><rect x="0" y="720" width="1600" height="40" fill="#33533A"/><rect x="0" y="800" width="1600" height="40" fill="#33533A"/><rect x="0" y="880" width="1600" height="40" fill="#33533A"/><rect x="0" y="960" width="1600" height="40" fill="#33533A"/></g>
<path d="M520 120 C700 60 1000 90 1080 190 C1150 280 1060 380 900 400 C740 420 560 400 480 320 C420 250 430 160 520 120 Z" fill="#1F5B8C"/><path d="M520 120 C700 60 1000 90 1080 190 C1150 280 1060 380 900 400 C740 420 560 400 480 320 C420 250 430 160 520 120 Z" fill="none" stroke="#2E74AA" stroke-width="10" opacity=".7"/><path d="M1042 133 q18 -9 36 0 t36 0" fill="none" stroke="#9FC6E4" stroke-width="3" opacity=".35"/><path d="M923 170 q18 -9 36 0 t36 0" fill="none" stroke="#9FC6E4" stroke-width="3" opacity=".35"/><path d="M1053 134 q18 -9 36 0 t36 0" fill="none" stroke="#9FC6E4" stroke-width="3" opacity=".35"/><path d="M997 300 q18 -9 36 0 t36 0" fill="none" stroke="#9FC6E4" stroke-width="3" opacity=".35"/><path d="M986 380 q18 -9 36 0 t36 0" fill="none" stroke="#9FC6E4" stroke-width="3" opacity=".35"/><path d="M665 215 q18 -9 36 0 t36 0" fill="none" stroke="#9FC6E4" stroke-width="3" opacity=".35"/><path d="M908 200 q18 -9 36 0 t36 0" fill="none" stroke="#9FC6E4" stroke-width="3" opacity=".35"/><path d="M677 187 q18 -9 36 0 t36 0" fill="none" stroke="#9FC6E4" stroke-width="3" opacity=".35"/><path d="M986 349 q18 -9 36 0 t36 0" fill="none" stroke="#9FC6E4" stroke-width="3" opacity=".35"/><path d="M955 186 q18 -9 36 0 t36 0" fill="none" stroke="#9FC6E4" stroke-width="3" opacity=".35"/><path d="M1021 258 q18 -9 36 0 t36 0" fill="none" stroke="#9FC6E4" stroke-width="3" opacity=".35"/><path d="M660 244 q18 -9 36 0 t36 0" fill="none" stroke="#9FC6E4" stroke-width="3" opacity=".35"/><path d="M758 150 q18 -9 36 0 t36 0" fill="none" stroke="#9FC6E4" stroke-width="3" opacity=".35"/><path d="M834 220 q18 -9 36 0 t36 0" fill="none" stroke="#9FC6E4" stroke-width="3" opacity=".35"/><path d="M836 363 q18 -9 36 0 t36 0" fill="none" stroke="#9FC6E4" stroke-width="3" opacity=".35"/><path d="M876 231 q18 -9 36 0 t36 0" fill="none" stroke="#9FC6E4" stroke-width="3" opacity=".35"/><path d="M989 379 q18 -9 36 0 t36 0" fill="none" stroke="#9FC6E4" stroke-width="3" opacity=".35"/><path d="M795 366 q18 -9 36 0 t36 0" fill="none" stroke="#9FC6E4" stroke-width="3" opacity=".35"/><circle cx="1474" cy="117" r="46" fill="rgba(5,15,8,.45)"/><circle cx="1458" cy="97" r="36" fill="#1B3320"/><circle cx="1450" cy="88" r="19" fill="#284A2D"/><circle cx="1429" cy="242" r="45" fill="rgba(5,15,8,.45)"/><circle cx="1414" cy="222" r="45" fill="#244329"/><circle cx="1402" cy="209" r="23" fill="#30573A"/><circle cx="1406" cy="301" r="36" fill="rgba(5,15,8,.45)"/><circle cx="1394" cy="284" r="29" fill="#1B3320"/><circle cx="1387" cy="277" r="15" fill="#284A2D"/><circle cx="1448" cy="302" r="38" fill="rgba(5,15,8,.45)"/><circle cx="1435" cy="285" r="38" fill="#244329"/><circle cx="1425" cy="274" r="19" fill="#30573A"/><circle cx="1450" cy="342" r="39" fill="rgba(5,15,8,.45)"/><circle cx="1437" cy="324" r="32" fill="#1B3320"/><circle cx="1429" cy="316" r="17" fill="#284A2D"/><circle cx="1476" cy="350" r="36" fill="rgba(5,15,8,.45)"/><circle cx="1463" cy="333" r="29" fill="#1B3320"/><circle cx="1457" cy="326" r="15" fill="#284A2D"/><circle cx="1429" cy="412" r="35" fill="rgba(5,15,8,.45)"/><circle cx="1417" cy="397" r="28" fill="#1B3320"/><circle cx="1410" cy="390" r="15" fill="#284A2D"/><circle cx="1452" cy="432" r="42" fill="rgba(5,15,8,.45)"/><circle cx="1437" cy="413" r="34" fill="#1B3320"/><circle cx="1430" cy="405" r="18" fill="#284A2D"/><circle cx="1441" cy="487" r="45" fill="rgba(5,15,8,.45)"/><circle cx="1425" cy="467" r="36" fill="#1B3320"/><circle cx="1417" cy="458" r="19" fill="#284A2D"/><circle cx="1408" cy="489" r="39" fill="rgba(5,15,8,.45)"/><circle cx="1394" cy="471" r="31" fill="#1B3320"/><circle cx="1387" cy="463" r="16" fill="#284A2D"/><circle cx="1465" cy="497" r="41" fill="rgba(5,15,8,.45)"/><circle cx="1451" cy="479" r="41" fill="#244329"/><circle cx="1441" cy="467" r="21" fill="#30573A"/><circle cx="1565" cy="523" r="30" fill="rgba(5,15,8,.45)"/><circle cx="1554" cy="509" r="24" fill="#1B3320"/><circle cx="1548" cy="503" r="13" fill="#284A2D"/><circle cx="1374" cy="586" r="35" fill="rgba(5,15,8,.45)"/><circle cx="1361" cy="570" r="35" fill="#244329"/><circle cx="1353" cy="560" r="18" fill="#30573A"/><circle cx="1619" cy="596" r="45" fill="rgba(5,15,8,.45)"/><circle cx="1603" cy="575" r="45" fill="#244329"/><circle cx="1592" cy="563" r="23" fill="#30573A"/><circle cx="1532" cy="606" r="38" fill="rgba(5,15,8,.45)"/><circle cx="1519" cy="589" r="30" fill="#1B3320"/><circle cx="1512" cy="582" r="16" fill="#284A2D"/><circle cx="1500" cy="635" r="30" fill="rgba(5,15,8,.45)"/><circle cx="1490" cy="621" r="30" fill="#244329"/><circle cx="1483" cy="613" r="15" fill="#30573A"/><circle cx="1531" cy="666" r="38" fill="rgba(5,15,8,.45)"/><circle cx="1518" cy="649" r="38" fill="#244329"/><circle cx="1508" cy="638" r="19" fill="#30573A"/><circle cx="1493" cy="685" r="33" fill="rgba(5,15,8,.45)"/><circle cx="1481" cy="671" r="26" fill="#1B3320"/><circle cx="1475" cy="664" r="14" fill="#284A2D"/><circle cx="1431" cy="776" r="37" fill="rgba(5,15,8,.45)"/><circle cx="1418" cy="759" r="30" fill="#1B3320"/><circle cx="1411" cy="751" r="16" fill="#284A2D"/><circle cx="1434" cy="788" r="29" fill="rgba(5,15,8,.45)"/><circle cx="1423" cy="775" r="29" fill="#244329"/><circle cx="1416" cy="766" r="15" fill="#30573A"/><circle cx="1612" cy="814" r="43" fill="rgba(5,15,8,.45)"/><circle cx="1597" cy="795" r="43" fill="#244329"/><circle cx="1586" cy="783" r="21" fill="#30573A"/><circle cx="1519" cy="953" r="44" fill="rgba(5,15,8,.45)"/><circle cx="1503" cy="933" r="44" fill="#244329"/><circle cx="1492" cy="921" r="22" fill="#30573A"/><circle cx="624" cy="713" r="44" fill="rgba(5,15,8,.45)"/><circle cx="609" cy="693" r="44" fill="#244329"/><circle cx="598" cy="681" r="22" fill="#30573A"/><circle cx="629" cy="711" r="39" fill="rgba(5,15,8,.45)"/><circle cx="615" cy="694" r="31" fill="#1B3320"/><circle cx="608" cy="686" r="16" fill="#284A2D"/><circle cx="-68" cy="729" r="45" fill="rgba(5,15,8,.45)"/><circle cx="-83" cy="709" r="36" fill="#1B3320"/><circle cx="-91" cy="700" r="19" fill="#284A2D"/><circle cx="397" cy="731" r="42" fill="rgba(5,15,8,.45)"/><circle cx="382" cy="712" r="42" fill="#244329"/><circle cx="371" cy="700" r="21" fill="#30573A"/><circle cx="378" cy="745" r="45" fill="rgba(5,15,8,.45)"/><circle cx="363" cy="725" r="36" fill="#1B3320"/><circle cx="355" cy="716" r="19" fill="#284A2D"/><circle cx="761" cy="756" r="30" fill="rgba(5,15,8,.45)"/><circle cx="750" cy="742" r="30" fill="#244329"/><circle cx="743" cy="734" r="15" fill="#30573A"/><circle cx="293" cy="762" r="34" fill="rgba(5,15,8,.45)"/><circle cx="281" cy="747" r="34" fill="#244329"/><circle cx="272" cy="738" r="17" fill="#30573A"/><circle cx="767" cy="766" r="29" fill="rgba(5,15,8,.45)"/><circle cx="757" cy="753" r="29" fill="#244329"/><circle cx="749" cy="745" r="14" fill="#30573A"/><circle cx="760" cy="772" r="42" fill="rgba(5,15,8,.45)"/><circle cx="745" cy="753" r="34" fill="#1B3320"/><circle cx="738" cy="745" r="18" fill="#284A2D"/><circle cx="447" cy="771" r="32" fill="rgba(5,15,8,.45)"/><circle cx="436" cy="756" r="32" fill="#244329"/><circle cx="428" cy="747" r="16" fill="#30573A"/><circle cx="310" cy="780" r="45" fill="rgba(5,15,8,.45)"/><circle cx="294" cy="760" r="45" fill="#244329"/><circle cx="283" cy="748" r="22" fill="#30573A"/><circle cx="356" cy="785" r="38" fill="rgba(5,15,8,.45)"/><circle cx="343" cy="769" r="30" fill="#1B3320"/><circle cx="336" cy="761" r="16" fill="#284A2D"/><circle cx="622" cy="786" r="27" fill="rgba(5,15,8,.45)"/><circle cx="613" cy="774" r="22" fill="#1B3320"/><circle cx="608" cy="768" r="11" fill="#284A2D"/><circle cx="947" cy="791" r="38" fill="rgba(5,15,8,.45)"/><circle cx="933" cy="774" r="38" fill="#244329"/><circle cx="924" cy="763" r="19" fill="#30573A"/><circle cx="147" cy="794" r="40" fill="rgba(5,15,8,.45)"/><circle cx="133" cy="776" r="32" fill="#1B3320"/><circle cx="126" cy="768" r="17" fill="#284A2D"/><circle cx="68" cy="789" r="26" fill="rgba(5,15,8,.45)"/><circle cx="59" cy="777" r="21" fill="#1B3320"/><circle cx="54" cy="772" r="11" fill="#284A2D"/><circle cx="289" cy="792" r="30" fill="rgba(5,15,8,.45)"/><circle cx="278" cy="779" r="30" fill="#244329"/><circle cx="271" cy="770" r="15" fill="#30573A"/><circle cx="467" cy="799" r="38" fill="rgba(5,15,8,.45)"/><circle cx="453" cy="782" r="30" fill="#1B3320"/><circle cx="446" cy="774" r="16" fill="#284A2D"/><circle cx="413" cy="820" r="45" fill="rgba(5,15,8,.45)"/><circle cx="397" cy="800" r="45" fill="#244329"/><circle cx="386" cy="787" r="22" fill="#30573A"/><circle cx="489" cy="826" r="44" fill="rgba(5,15,8,.45)"/><circle cx="473" cy="806" r="44" fill="#244329"/><circle cx="462" cy="794" r="22" fill="#30573A"/><circle cx="592" cy="860" r="30" fill="rgba(5,15,8,.45)"/><circle cx="582" cy="847" r="30" fill="#244329"/><circle cx="574" cy="838" r="15" fill="#30573A"/><circle cx="532" cy="915" r="40" fill="rgba(5,15,8,.45)"/><circle cx="518" cy="897" r="32" fill="#1B3320"/><circle cx="511" cy="889" r="17" fill="#284A2D"/><path d="M190 600 C450 600 780 610 1060 560 C1220 530 1300 430 1300 290" fill="none" stroke="#5A8A44" stroke-width="160" stroke-linecap="round" stroke-linejoin="round"/><path d="M190 600 C450 600 780 610 1060 560 C1220 530 1300 430 1300 290" fill="none" stroke="#67984F" stroke-width="150" stroke-linecap="butt" stroke-dasharray="34 34" opacity=".55"/><ellipse cx="1180" cy="680" rx="60" ry="26" fill="#E6D9B2" transform="rotate(-10 1180 680)"/><ellipse cx="1390" cy="330" rx="26" ry="60" fill="#E6D9B2" transform="rotate(0 1390 330)"/><path d="M220 600 Q700 610 1060 560 Q1280 520 1290 270" fill="none" stroke="#F2F0E6" stroke-width="3" stroke-dasharray="2 14" stroke-linecap="round" opacity=".75"/><rect x="146" y="578" width="68" height="44" rx="10" fill="#67984F" stroke="#F2F0E6" stroke-opacity=".5" stroke-width="2" transform="rotate(0 180 600)"/><ellipse cx="1290" cy="220" rx="102" ry="78" fill="#5A8A44" transform="rotate(-70 1290 220)"/><ellipse cx="1290" cy="220" rx="86" ry="64" fill="#79B152" transform="rotate(-70 1290 220)"/><line x1="1300" y1="226" x2="1300" y2="150" stroke="#F2F0E6" stroke-width="4"/><path d="M1300 150 L1340 162 L1300 174 Z" fill="#8CC63F"/><circle cx="1300" cy="226" r="6" fill="#0d1a10"/><text x="180" y="675" fill="#F2F0E6" font-family="Archivo,Helvetica,Arial,sans-serif" font-size="22" font-weight="700" letter-spacing="3" text-anchor="middle" opacity=".85">598 YDS</text><text x="800" y="260" fill="#F2F0E6" font-family="Archivo,Helvetica,Arial,sans-serif" font-size="22" font-weight="700" letter-spacing="3" text-anchor="middle" opacity=".85">DO NOT GO FOR IT IN TWO</text><rect width="1600" height="1000" fill="url(#vig)"/>
<rect width="1600" height="1000" fill="#fff" filter="url(#grain)"/>
<text x="56" y="86" fill="#F2F0E6" opacity=".82" font-family="Archivo,Helvetica,Arial,sans-serif" font-size="30" font-weight="700" letter-spacing="7">NO. 15 · PAR 5</text>
</svg>